<svg width="1377" height="1377" viewBox="0 0 1377 1377" fill="none" xmlns="http://www.w3.org/2000/svg">
<path d="M49.5264 664.608H664.609V433.643L619.43 388.463L622.965 384.927L664.609 343.282V49.5264H49.5264V664.608ZM456.252 446.252V518.104H383.463V446.252H456.252ZM456.252 258.821V330.673H383.463V258.821H456.252ZM709.137 709.136H5V5H709.137V361.726L707.672 363.19L682.399 388.462L709.137 415.199V709.136Z" stroke-width="20"/>
<path d="M1372 5V709.136H667.863V5H1372ZM712.389 664.608H983.537V446.252H1056.33V664.608H1327.47V49.5264H712.389V664.608ZM1056.33 258.821V330.673H983.537V258.821H1056.33Z" stroke-width="20"/>
<path d="M709.137 667.863V1372H5V667.863H709.137ZM49.5264 1327.47H664.609V1056.33H456.252V1119.11H383.463V921.684H456.252V983.536H664.609V712.389H49.5264V1327.47Z" stroke-width="20"/>
<path d="M1372 667.863V1372H667.863V667.863H1372ZM712.389 1327.47H983.537V1202.83H1056.33V1327.47H1327.47V712.389H1056.33V931.684H983.537V712.389H712.389V1327.47Z" stroke-width="20"/>
<path d="M10 145.7V10H145.7L10 145.7Z" stroke-width="20"/>
<path d="M1367 145.7V10H1231.3L1367 145.7Z" stroke-width="20"/>
<path d="M1367 145.7V10H1231.3L1367 145.7Z" stroke-width="20"/>
<path d="M10 1231.3V1367H145.7L10 1231.3Z" stroke-width="20"/>
<path d="M1367 1231.3V1367H1231.3L1367 1231.3Z" stroke-width="20"/>
</svg>
