<svg width="533" height="534" viewBox="0 0 533 534" fill="none" xmlns="http://www.w3.org/2000/svg">
<path d="M128.472 1V62.3471L119.68 71.1382L128.472 79.9294V128.472H1V1H128.472ZM83.9426 96.5562V83.9427H71.1381V96.5562H83.9426ZM83.9426 58.3337V45.7203H71.1381V58.3337H83.9426Z" stroke-width="2"/>
<path d="M136.176 1H263.648V128.472H206.315V83.9427H193.51V128.472H136.176V1ZM206.315 58.3337V45.7203H193.51V58.3337H206.315Z" stroke-width="2"/>
<path d="M128.472 193.51H83.9426V180.897H71.1381V219.119H83.9426V206.315H128.472V263.649H1V136.177H128.472V193.51Z" stroke-width="2"/>
<path d="M263.15 205.928V263.261H135.679V205.928H161.097V193.123H135.679V135.789H263.15V193.123H218.43V205.928H263.15Z" stroke-width="2"/>
<path d="M387.44 146.662H531.453V263.5H270V1L387.44 1.00002V146.662Z" stroke-width="2"/>
<path d="M1.0264 270H263V533H1.02637L1.0264 270ZM145.746 416.993V390.861H119.326V416.993H145.746Z" stroke-width="2"/>
<path d="M413.858 361.557V413.596H440.121V387.381H531.453V533H270V270H531.453V361.557H413.858Z" stroke-width="2"/>
</svg>
