<svg width="221" height="221" viewBox="0 0 221 221" fill="none" xmlns="http://www.w3.org/2000/svg">
<path d="M14.4707 9.9707C11.9854 9.9707 9.9707 11.9854 9.9707 14.4707V106.007H106.007V70.4141L98.5557 62.9629L106.007 55.5117V9.9707H14.4707ZM74.4111 71.4111V84.2109H61.4629V71.4111H74.4111ZM74.4111 41.7148V54.5146H61.4629V41.7148H74.4111ZM114.478 114.478H1.5V12C1.5 6.20101 6.20101 1.5 12 1.5H114.478V59.0195L110.534 62.9629L114.038 66.4668L114.478 66.9053V114.478Z" stroke-width="3"/>
<path d="M209 1.5C214.799 1.50002 219.5 6.20102 219.5 12V114.478H106.523V1.5H209ZM114.994 106.007H156.538V71.4111H169.486V106.007H211.03V14.4707C211.03 11.9854 209.015 9.9707 206.53 9.9707H114.994V106.007ZM169.486 41.7148V54.5146H156.538V41.7148H169.486Z" stroke-width="3"/>
<path d="M114.478 106.523V219.5H12C6.20103 219.5 1.50004 214.799 1.5 209V106.523H114.478ZM9.9707 206.53C9.9707 209.015 11.9854 211.03 14.4707 211.03H106.007V169.486H74.4111V179.434H61.4629V146.738H74.4111V156.537H106.007V114.993H9.9707V206.53Z" stroke-width="3"/>
<path d="M219.5 106.523V209C219.5 214.799 214.799 219.5 209 219.5H106.523V106.523H219.5ZM114.994 211.03H156.538V191.281H169.486V211.03H206.53C209.015 211.03 211.03 209.015 211.03 206.53V114.993H169.486V149.738H156.538V114.993H114.994V211.03Z" stroke-width="3"/>
</svg>
