<svg width="801" height="265" viewBox="0 0 801 265" fill="none" xmlns="http://www.w3.org/2000/svg">
<path d="M128.472 1V62.3471L119.68 71.1382L128.472 79.9294V128.472H1V1H128.472ZM83.9426 96.5562V83.9427H71.1381V96.5562H83.9426ZM83.9426 58.3337V45.7203H71.1381V58.3337H83.9426Z" stroke-width="2"/>
<path d="M136.176 1H263.648V128.472H206.315V83.9427H193.51V128.472H136.176V1ZM206.315 58.3337V45.7203H193.51V58.3337H206.315Z" stroke-width="2"/>
<path d="M128.472 193.51H83.9426V180.897H71.1381V219.119H83.9426V206.315H128.472V263.649H1V136.177H128.472V193.51Z" stroke-width="2"/>
<path d="M263.15 205.928V263.261H135.679V205.928H161.097V193.123H135.679V135.789H263.15V193.123H218.43V205.928H263.15Z" stroke-width="2"/>
<path d="M387.44 146.662H531.453V264H270L270 1L387.44 1.00002V146.662Z" stroke-width="2"/>
<path d="M394.777 1.00002H531.453L531.453 139.581H394.776L394.777 1.00002ZM469.979 78.1605V64.4433H456.25V78.1605H469.979Z" stroke-width="2"/>
<path d="M682.405 92.5571V144.596H708.668V118.381H800V264H538.547V1H800V92.5571H682.405Z" stroke-width="2"/>
</svg>
